<svg width="200px" height="35px" viewBox="0 0 200 35" version="1.1" xmlns="http://www.w3.org/2000/svg" xmlns:xlink="http://www.w3.org/1999/xlink">
    <title>BrainPOP</title>
    <g stroke="none" stroke-width="1" fill-rule="evenodd">
        <g transform="translate(-268.000000, -156.000000)">
            <path d="M307.403098,178.807429 L307.403098,184.200051 L310.368458,184.200051 L310.368458,190.223761 L296.388358,190.223761 L296.388358,184.190586 L299.353749,184.190586 L299.353749,174.389832 L296.388358,174.389832 L296.388358,168.394523 L304.607078,168.394523 L305.2845,172.660658 L305.792583,172.660658 C307.070743,170.821045 310.026552,167.974836 314.177449,167.974836 L314.177449,175.711957 C313.13998,175.479302 312.080889,175.353468 311.017135,175.336463 C308.968867,175.336459 307.403098,176.368282 307.403098,178.807429 Z M294.193284,181.738821 C294.193284,185.746212 291.691052,190.223761 284.7122,190.223761 L268,190.223761 L268,184.190586 L270.965375,184.190586 L270.965375,166.362416 L268,166.362416 L268,160.34819 L283.996419,160.34819 C290.269072,160.34819 292.812648,164.264077 292.812648,167.76974 C292.835484,170.233187 291.558315,172.5308 289.441474,173.834475 L289.441474,174.336188 C292.356274,175.667478 294.214123,178.558166 294.193284,181.729356 L294.193284,181.738821 Z M279.024299,172.641725 L282.219749,172.641725 C284.17856,172.641725 285.156367,170.903084 285.156367,169.454731 C285.156367,168.006407 284.178563,166.362416 282.219749,166.362416 L279.024299,166.362416 L279.024299,172.641725 Z M286.134174,180.62811 C286.134174,178.990443 285.17554,177.15714 282.817299,177.15714 L279.024299,177.15714 L279.024299,184.190586 L282.817299,184.190586 C285.159561,184.190586 286.134174,182.278399 286.134174,180.62811 Z M343.891919,166.185736 C346.898831,166.185736 349.193188,164.658501 349.193188,161.092852 C349.193188,157.527234 346.882862,156 343.891919,156 C340.900977,156 338.593876,157.527234 338.593876,161.092852 C338.593876,164.658501 340.872232,166.185736 343.891919,166.185736 Z M348.761791,168.394523 L337.731113,168.394523 L337.731113,174.389832 L340.696473,174.389832 L340.696473,190.204831 L351.711181,190.204831 L351.711181,184.177965 L348.745821,184.177965 L348.761791,168.394523 Z M440.276276,175.462678 C440.276276,184.477731 433.514701,191 424.471576,191 C415.428451,191 408.666875,184.487199 408.666875,175.462678 C408.666875,166.43814 415.428451,159.928503 424.471576,159.928503 C433.514701,159.928503 440.276276,166.447634 440.276276,175.462678 Z M432.057588,175.462678 C432.057588,170.549676 429.136943,166.832596 424.471608,166.832596 C419.806241,166.832596 416.888789,170.549676 416.888789,175.462678 C416.888789,180.375677 419.806241,184.095926 424.471576,184.095926 C429.136911,184.095926 432.057588,180.385141 432.057588,175.462678 L432.057588,175.462678 Z M334.343938,184.190586 L337.309297,184.190586 L337.309297,190.214296 L328.774255,190.214296 L328.096833,185.948158 L327.595138,185.948158 C326.457541,188.507209 324.182411,190.633967 320.114588,190.633967 C316.219329,190.633967 313.241163,187.794085 313.241163,183.774069 C313.241163,178.984132 317.209912,176.623873 321.332063,176.611251 C323.044048,176.579491 324.74166,176.925541 326.300977,177.624141 L326.300977,176.914172 C326.300977,174.998827 324.827863,173.98278 322.817953,173.98278 C320.213662,173.98278 317.743578,175.244953 317.743578,175.244953 L317.743578,169.000352 C319.913565,168.34589 322.166114,167.996409 324.434824,167.962221 C330.876851,167.962221 334.340744,171.139741 334.340744,176.914172 L334.343938,184.190586 Z M326.294589,181.284438 C325.561146,180.819339 324.708891,180.569817 323.83728,180.565004 C322.428076,180.565004 321.280929,181.401192 321.280929,182.679137 C321.280929,183.957083 322.357779,184.644969 323.415496,184.644969 C325.220902,184.644969 326.294589,183.007301 326.294589,181.284438 Z M468,170.171024 C468,176.497655 463.615854,179.993868 457.212153,179.993868 L452.834395,179.993868 L452.834395,184.187429 L455.799787,184.187429 L455.799787,190.211142 L441.819687,190.211142 L441.819687,184.193743 L444.785079,184.193743 L444.785079,166.368724 L441.819687,166.368724 L441.819687,160.34819 L457.212153,160.34819 C463.615822,160.34819 468,163.844391 468,170.171024 Z M459.950651,170.171024 C459.950651,168.397677 458.838638,166.384525 456.355778,166.384525 L452.840783,166.384525 L452.840783,173.970158 L456.355778,173.970158 C458.838638,173.970158 459.950651,171.944374 459.950651,170.171024 Z M377.549588,176.242067 C377.549588,169.38216 373.395498,167.959067 369.92525,167.959067 C365.771159,167.959067 362.812187,170.798955 361.540384,172.644879 L361.032301,172.644879 L360.354879,168.394523 L352.136191,168.394523 L352.136191,174.389832 L355.10155,174.389832 L355.10155,190.204831 L366.11629,190.204831 L366.11629,184.177965 L363.150899,184.177965 L363.150899,178.952577 C363.150899,176.974127 364.59843,175.317527 366.729803,175.317527 C368.327542,175.317527 369.500272,176.119006 369.500272,177.980709 L369.500272,190.217453 L380.51498,190.217453 L380.51498,184.19059 L377.549588,184.19059 L377.549588,176.242067 Z M407.123496,170.171027 C407.123496,176.497658 402.739318,179.997025 396.332455,179.997025 L391.954698,179.997025 L391.954698,184.19059 L394.920057,184.19059 L394.920057,190.214299 L383.905349,190.214299 L383.905349,166.371877 L380.939958,166.371877 L380.939958,160.34819 L396.332455,160.34819 C402.739318,160.34819 407.123496,163.844391 407.123496,170.171024 L407.123496,170.171027 Z M399.070954,170.171027 C399.070954,168.397677 397.95894,166.384525 395.479274,166.384525 L391.964279,166.384525 L391.964279,173.973315 L395.479274,173.973315 C397.95894,173.973315 399.070954,171.944374 399.070954,170.171024 L399.070954,170.171027 Z"></path>
        </g>
    </g>
</svg>