<svg xmlns="http://www.w3.org/2000/svg" xmlns:xlink="http://www.w3.org/1999/xlink" width="200px" height="200px" viewBox="0 0 200 200" version="1.1"><script xmlns=""/>
    <!-- Generator: Sketch 47 (45396) - http://www.bohemiancoding.com/sketch -->
    <title>science_white</title>
    <desc>Created with Sketch.</desc>
    <defs/>
    <g id="Page-1" stroke="none" stroke-width="1" fill="none" fill-rule="evenodd">
        <g id="science_white" fill-rule="nonzero" fill="#FFFFFF">
            <g id="bp_subject_icon_science" transform="translate(30.000000, 38.000000)">
                <path d="M105.02895,1.84047838 C100.281224,-0.706446246 94.8580094,-0.609971829 88.7593052,2.12990163 C82.660601,4.90836486 76.4074993,9.51984202 70,15.9643331 C63.5925007,9.51984202 57.339399,4.90836486 51.2406948,2.12990163 C45.18059,-0.609971829 39.7766749,-0.706446246 35.0289495,1.84047838 C30.4356217,4.65753137 27.810863,9.40407272 27.1546733,16.0801024 C26.4984836,22.7561321 27.3669699,30.4547906 29.7601323,39.176078 C20.9594706,41.491464 13.8378825,44.5979403 8.39536807,48.4955067 C2.9528536,52.3930732 0.154397574,57.0431401 0,62.4457075 C0.154397574,67.8482749 2.9528536,72.4790469 8.39536807,76.3380237 C13.8378825,80.2355901 20.9401709,83.3420664 29.7022333,85.6574524 C28.9688448,88.3973259 28.3898539,91.0407249 27.9652605,93.5876495 C25.4177006,108.792018 27.7722636,118.613113 35.0289495,123.050937 C37.1133168,124.247219 39.4292804,124.845361 41.9768404,124.845361 C48.3843397,124.806771 55.7375241,121.333692 64.0363937,114.426124 C66.0435622,112.766764 68.0314309,110.953045 70,108.984967 C72.0071685,110.953045 73.9950372,112.766764 75.9636063,114.426124 C84.3010753,121.333692 91.6542597,124.806771 98.0231596,124.845361 C100.609319,124.845361 102.944582,124.247219 105.02895,123.050937 C112.247036,118.613113 114.601599,108.792018 112.092639,93.5876495 C111.629446,91.0407249 111.031155,88.3973259 110.297767,85.6574524 C119.059829,83.3420664 126.162117,80.2355901 131.604632,76.3380237 C137.047146,72.4790469 139.845602,67.8482749 140,62.4457075 C139.845602,57.0431401 137.047146,52.3930732 131.604632,48.4955067 C126.162117,44.63653 119.040529,41.5300538 110.239868,39.176078 C112.63303,30.4162009 113.501516,22.7175423 112.845327,16.0801024 C112.227736,9.40407272 109.622277,4.65753137 105.02895,1.84047838 L105.02895,1.84047838 Z M97.8494624,8.09202064 C99.0074442,8.09202064 100.049628,8.34285413 100.976013,8.8445211 C104.913151,11.507215 105.955335,18.5112577 104.102564,29.8566493 C103.677971,32.2878046 103.11828,34.7961394 102.42349,37.3816538 C97.0967742,36.3011403 91.5770609,35.5100501 85.8643507,35.0083832 C82.5448029,30.3390213 79.1094569,25.9590828 75.5583127,21.8685675 C84.7449683,12.8771518 92.1753515,8.28496947 97.8494624,8.09202064 L97.8494624,8.09202064 Z M91.6542597,43.80685 C94.5492142,44.1927477 97.3476703,44.63653 100.049628,45.138197 C99.1232423,47.7623012 98.1003584,50.4057002 96.980976,53.0683941 C96.1703888,51.4862137 95.3019024,49.9233281 94.375517,48.3797374 C93.4877309,46.8361467 92.5806452,45.311851 91.6542597,43.80685 L91.6542597,43.80685 Z M70,27.8306865 L70.0578991,27.8306865 C71.8334712,29.8759441 73.6090433,32.056266 75.3846154,34.371652 C73.6090433,34.3330622 71.8141715,34.3137673 70,34.3137673 C68.2244279,34.3137673 66.4488558,34.3330622 64.6732837,34.371652 C66.4488558,32.056266 68.2244279,29.8759441 70,27.8306865 L70,27.8306865 Z M70,42.4176184 C73.9371381,42.4176184 77.7198787,42.5333877 81.3482217,42.7649263 C83.4325889,45.8906975 85.4397574,49.112943 87.369727,52.431663 C89.2996967,55.7503829 91.0752688,59.0883978 92.6964433,62.4457075 C91.0752688,65.7644275 89.2996967,69.1024423 87.369727,72.4597521 C85.4397574,75.8170618 83.4325889,79.0393073 81.3482217,82.1264887 C77.6426799,82.3580273 73.8599393,82.4737966 70,82.4737966 C66.1014613,82.4737966 62.3187207,82.3580273 58.6517783,82.1264887 C56.5674111,79.0007176 54.5602426,75.778472 52.630273,72.4597521 C50.7003033,69.0638526 48.9247312,65.7258377 47.3035567,62.4457075 C48.9247312,59.0883978 50.7003033,55.7503829 52.630273,52.431663 C54.598842,49.0357635 56.6060105,45.8135179 58.6517783,42.7649263 C62.3573201,42.5333877 66.1400607,42.4176184 70,42.4176184 L70,42.4176184 Z M101.728701,62.3878229 C104.121864,57.2167941 106.186931,52.0650602 107.923904,46.9326212 C123.325062,51.2932648 131.315136,56.4642936 131.894127,62.4457075 C131.585332,67.1922489 126.046319,71.5914823 115.277089,75.6434078 C112.961125,76.4923827 110.529363,77.2641781 107.981803,77.9587939 C106.24483,72.9035344 104.160463,67.7132107 101.728701,62.3878229 L101.728701,62.3878229 Z M39.0818859,8.8445211 C39.9310725,8.34285413 40.9539564,8.09202064 42.1505376,8.09202064 C46.4736697,8.16920017 52.0319824,11.0248429 58.8254756,16.6589489 C60.7168459,18.2411294 62.6082162,19.9776689 64.4995864,21.8685675 C60.9098428,25.920493 57.4744968,30.3004316 54.1935484,35.0083832 C48.4422388,35.5100501 42.9225255,36.3011403 37.6344086,37.3816538 C35.6658395,29.895239 34.7973532,23.6436968 35.0289495,18.627027 C35.2991453,13.6103573 36.6501241,10.349522 39.0818859,8.8445211 L39.0818859,8.8445211 Z M40.0082713,45.0803123 C42.7102288,44.5786454 45.5086849,44.1348631 48.4036394,43.7489654 C47.4386545,45.2925561 46.5122691,46.8361467 45.624483,48.3797374 C44.736697,49.9233281 43.8682106,51.4862137 43.019024,53.0683941 C41.8996416,50.3285207 40.8960573,47.6658267 40.0082713,45.0803123 L40.0082713,45.0803123 Z M24.7808106,49.1901225 C27.0581748,48.3797374 29.4899366,47.627237 32.0760959,46.9326212 C33.8130687,52.0650602 35.8974359,57.2167941 38.3291977,62.3878229 C35.8588365,67.674621 33.7744693,72.8456497 32.0760959,77.9009092 C16.674938,73.5788553 8.68486352,68.4271214 8.10587262,62.4457075 C8.45326716,57.6991662 14.0115798,53.2806378 24.7808106,49.1901225 L24.7808106,49.1901225 Z M45.624483,76.5116776 C46.5122691,78.0552683 47.4386545,79.5795641 48.4036394,81.084565 C45.4700855,80.6986673 42.6716294,80.254885 40.0082713,79.753218 C40.8960573,77.1291139 41.8996416,74.4857148 43.019024,71.8230209 C43.8682106,73.4052014 44.736697,74.9680869 45.624483,76.5116776 L45.624483,76.5116776 Z M35.955335,94.9768811 C36.3413289,92.5843156 36.8817204,90.0952756 37.5765095,87.5097612 C42.9032258,88.5516849 48.4229391,89.3427751 54.1356493,89.8830319 C57.4937965,94.668163 60.9291425,99.0673964 64.4416873,103.080732 C62.5889165,104.933041 60.7168459,106.650286 58.8254756,108.232466 C49.9090157,115.525932 43.3278191,118.130741 39.0818859,116.046894 C35.1061483,113.3842 34.0639647,106.360862 35.955335,94.9768811 L35.955335,94.9768811 Z M102.42349,87.5097612 C103.11828,90.0952756 103.677971,92.5843156 104.102564,94.9768811 C105.955335,106.360862 104.913151,113.3842 100.976013,116.046894 C96.6914806,118.130741 90.0909843,115.525932 81.1745244,108.232466 C79.3217535,106.650286 77.4496829,104.933041 75.5583127,103.080732 C79.0708575,99.0673964 82.5062035,94.668163 85.8643507,89.8830319 C91.5770609,89.3427751 97.0967742,88.5516849 102.42349,87.5097612 L102.42349,87.5097612 Z M100.049628,79.753218 C97.3090709,80.2934748 94.4913151,80.756552 91.5963606,81.1424496 C92.5613455,79.598859 93.4877309,78.0552683 94.375517,76.5116776 C95.263303,74.9680869 96.1317894,73.4052014 96.980976,71.8230209 C98.1003584,74.5243046 99.1232423,77.1677036 100.049628,79.753218 L100.049628,79.753218 Z M64.6153846,90.519763 C66.4295561,90.5583528 68.2244279,90.5776477 70,90.5776477 C71.8141715,90.5776477 73.6090433,90.5583528 75.3846154,90.519763 C73.6090433,92.7965593 71.8141715,94.996176 70,97.1186132 C68.1858285,95.0347658 66.3909567,92.8351491 64.6153846,90.519763 Z" id="Shape"/>
                <path d="M57.7319588,62.4226804 C57.7319588,65.7443153 58.8820079,68.5592601 61.1821063,70.8675148 C63.5383046,73.1757695 66.3433026,74.3298969 69.5971003,74.3298969 C72.9069979,74.3298969 75.7119959,73.1757695 78.0120943,70.8675148 C80.3682926,68.5592601 81.5463918,65.7443153 81.5463918,62.4226804 C81.5463918,59.1010456 80.3682926,56.2861008 78.0120943,53.977846 C75.7119959,51.6695913 72.9069979,50.5154639 69.5971003,50.5154639 C66.3433026,50.5154639 63.5383046,51.6695913 61.1821063,53.977846 C58.8820079,56.2861008 57.7319588,59.1010456 57.7319588,62.4226804 Z" id="Shape"/>
            </g>
        </g>
    </g>
<script xmlns=""/></svg>